<mxfile host="Electron" modified="2024-03-20T14:18:04.704Z" agent="Mozilla/5.0 (Windows NT 10.0; Win64; x64) AppleWebKit/537.36 (KHTML, like Gecko) draw.io/23.1.5 Chrome/120.0.6099.109 Electron/28.1.0 Safari/537.36" etag="c6RqecL0QjznPykfrqMp" version="23.1.5" type="device">
  <diagram name="ページ1" id="39H1uIZzQWtCZ264xKXX">
    <mxGraphModel dx="1195" dy="697" grid="1" gridSize="10" guides="1" tooltips="1" connect="1" arrows="1" fold="1" page="1" pageScale="1" pageWidth="1169" pageHeight="827" math="1" shadow="0">
      <root>
        <mxCell id="0" />
        <mxCell id="1" parent="0" />
        <mxCell id="4zZAviONTW99D36KNYWT-3" value="" style="group" vertex="1" connectable="0" parent="1">
          <mxGeometry x="360" y="310" width="90" height="100" as="geometry" />
        </mxCell>
        <mxCell id="4zZAviONTW99D36KNYWT-1" value="" style="verticalLabelPosition=bottom;shadow=0;dashed=0;align=center;html=1;verticalAlign=top;shape=mxgraph.electrical.abstract.amplifier;" vertex="1" parent="4zZAviONTW99D36KNYWT-3">
          <mxGeometry width="90" height="100" as="geometry" />
        </mxCell>
        <mxCell id="4zZAviONTW99D36KNYWT-2" value="" style="ellipse;whiteSpace=wrap;html=1;aspect=fixed;" vertex="1" parent="4zZAviONTW99D36KNYWT-3">
          <mxGeometry x="80" y="45" width="10" height="10" as="geometry" />
        </mxCell>
        <mxCell id="4zZAviONTW99D36KNYWT-4" value="" style="group" vertex="1" connectable="0" parent="1">
          <mxGeometry x="480" y="310" width="90" height="100" as="geometry" />
        </mxCell>
        <mxCell id="4zZAviONTW99D36KNYWT-5" value="" style="verticalLabelPosition=bottom;shadow=0;dashed=0;align=center;html=1;verticalAlign=top;shape=mxgraph.electrical.abstract.amplifier;" vertex="1" parent="4zZAviONTW99D36KNYWT-4">
          <mxGeometry width="90" height="100" as="geometry" />
        </mxCell>
        <mxCell id="4zZAviONTW99D36KNYWT-12" style="edgeStyle=orthogonalEdgeStyle;rounded=0;orthogonalLoop=1;jettySize=auto;html=1;exitX=1;exitY=0.5;exitDx=0;exitDy=0;strokeColor=default;align=center;verticalAlign=middle;fontFamily=Helvetica;fontSize=11;fontColor=default;labelBackgroundColor=default;endArrow=none;endFill=0;" edge="1" parent="4zZAviONTW99D36KNYWT-4" source="4zZAviONTW99D36KNYWT-6">
          <mxGeometry relative="1" as="geometry">
            <mxPoint x="110" y="49.95402298850581" as="targetPoint" />
          </mxGeometry>
        </mxCell>
        <mxCell id="4zZAviONTW99D36KNYWT-6" value="" style="ellipse;whiteSpace=wrap;html=1;aspect=fixed;" vertex="1" parent="4zZAviONTW99D36KNYWT-4">
          <mxGeometry x="80" y="45" width="10" height="10" as="geometry" />
        </mxCell>
        <mxCell id="4zZAviONTW99D36KNYWT-7" value="" style="group" vertex="1" connectable="0" parent="1">
          <mxGeometry x="690" y="310" width="90" height="100" as="geometry" />
        </mxCell>
        <mxCell id="4zZAviONTW99D36KNYWT-14" style="edgeStyle=orthogonalEdgeStyle;rounded=0;orthogonalLoop=1;jettySize=auto;html=1;exitX=0;exitY=0.5;exitDx=0;exitDy=0;exitPerimeter=0;strokeColor=default;align=center;verticalAlign=middle;fontFamily=Helvetica;fontSize=11;fontColor=default;labelBackgroundColor=default;endArrow=none;endFill=0;" edge="1" parent="4zZAviONTW99D36KNYWT-7" source="4zZAviONTW99D36KNYWT-8">
          <mxGeometry relative="1" as="geometry">
            <mxPoint x="-39.999999999999886" y="49.95402298850581" as="targetPoint" />
          </mxGeometry>
        </mxCell>
        <mxCell id="4zZAviONTW99D36KNYWT-8" value="" style="verticalLabelPosition=bottom;shadow=0;dashed=0;align=center;html=1;verticalAlign=top;shape=mxgraph.electrical.abstract.amplifier;" vertex="1" parent="4zZAviONTW99D36KNYWT-7">
          <mxGeometry width="90" height="100" as="geometry" />
        </mxCell>
        <mxCell id="4zZAviONTW99D36KNYWT-9" value="" style="ellipse;whiteSpace=wrap;html=1;aspect=fixed;" vertex="1" parent="4zZAviONTW99D36KNYWT-7">
          <mxGeometry x="80" y="45" width="10" height="10" as="geometry" />
        </mxCell>
        <mxCell id="4zZAviONTW99D36KNYWT-10" style="edgeStyle=orthogonalEdgeStyle;rounded=0;orthogonalLoop=1;jettySize=auto;html=1;exitX=1;exitY=0.5;exitDx=0;exitDy=0;entryX=0;entryY=0.5;entryDx=0;entryDy=0;entryPerimeter=0;endArrow=none;endFill=0;" edge="1" parent="1" source="4zZAviONTW99D36KNYWT-2" target="4zZAviONTW99D36KNYWT-5">
          <mxGeometry relative="1" as="geometry" />
        </mxCell>
        <mxCell id="4zZAviONTW99D36KNYWT-13" value="" style="endArrow=none;dashed=1;html=1;rounded=0;strokeColor=default;align=center;verticalAlign=middle;fontFamily=Helvetica;fontSize=11;fontColor=default;labelBackgroundColor=default;edgeStyle=orthogonalEdgeStyle;" edge="1" parent="1">
          <mxGeometry width="50" height="50" relative="1" as="geometry">
            <mxPoint x="590" y="359.89" as="sourcePoint" />
            <mxPoint x="650" y="359.89" as="targetPoint" />
          </mxGeometry>
        </mxCell>
        <mxCell id="4zZAviONTW99D36KNYWT-15" value="" style="verticalLabelPosition=bottom;shadow=0;dashed=0;align=center;html=1;verticalAlign=top;strokeWidth=1;shape=ellipse;perimeter=ellipsePerimeter;fontFamily=Helvetica;fontSize=11;fontColor=default;aspect=fixed;labelBackgroundColor=default;" vertex="1" parent="1">
          <mxGeometry x="320" y="357.00000000000006" width="6" height="6" as="geometry" />
        </mxCell>
        <mxCell id="4zZAviONTW99D36KNYWT-16" value="" style="verticalLabelPosition=bottom;shadow=0;dashed=0;align=center;html=1;verticalAlign=top;strokeWidth=1;shape=ellipse;perimeter=ellipsePerimeter;fontFamily=Helvetica;fontSize=11;fontColor=default;aspect=fixed;labelBackgroundColor=default;" vertex="1" parent="1">
          <mxGeometry x="820" y="357.00000000000006" width="6" height="6" as="geometry" />
        </mxCell>
        <mxCell id="4zZAviONTW99D36KNYWT-17" style="edgeStyle=orthogonalEdgeStyle;rounded=0;orthogonalLoop=1;jettySize=auto;html=1;exitX=0;exitY=0.5;exitDx=0;exitDy=0;exitPerimeter=0;entryX=1;entryY=0.5;entryDx=0;entryDy=0;strokeColor=default;align=center;verticalAlign=middle;fontFamily=Helvetica;fontSize=11;fontColor=default;labelBackgroundColor=default;endArrow=none;endFill=0;" edge="1" parent="1" source="4zZAviONTW99D36KNYWT-1" target="4zZAviONTW99D36KNYWT-15">
          <mxGeometry relative="1" as="geometry" />
        </mxCell>
        <mxCell id="4zZAviONTW99D36KNYWT-18" style="edgeStyle=orthogonalEdgeStyle;rounded=0;orthogonalLoop=1;jettySize=auto;html=1;exitX=1;exitY=0.5;exitDx=0;exitDy=0;entryX=0;entryY=0.5;entryDx=0;entryDy=0;strokeColor=default;align=center;verticalAlign=middle;fontFamily=Helvetica;fontSize=11;fontColor=default;labelBackgroundColor=default;endArrow=none;endFill=0;" edge="1" parent="1" source="4zZAviONTW99D36KNYWT-9" target="4zZAviONTW99D36KNYWT-16">
          <mxGeometry relative="1" as="geometry" />
        </mxCell>
      </root>
    </mxGraphModel>
  </diagram>
</mxfile>
